<?xml version="1.0" standalone="no"?>
<!DOCTYPE svg PUBLIC "-//W3C//DTD SVG 20010904//EN"
 "http://www.w3.org/TR/2001/REC-SVG-20010904/DTD/svg10.dtd">
<svg version="1.0" xmlns="http://www.w3.org/2000/svg"
 width="700.000000pt" height="700.000000pt" viewBox="0 0 700.000000 700.000000"
 preserveAspectRatio="xMidYMid meet">
<metadata>
Created by potrace 1.11, written by Peter Selinger 2001-2013
</metadata>
<g transform="translate(0.000000,700.000000) scale(0.100000,-0.100000)"
fill="#000000" stroke="none">
<path d="M1746 5254 l-1746 -1745 1746 -1746 1746 -1746 1746 1746 1746 1746
-272 272 c-150 150 -276 269 -280 265 -4 -3 -667 -666 -1474 -1472 l-1466
-1466 -1200 1200 -1200 1200 1469 1469 c807 807 1469 1472 1469 1477 0 5 -121
130 -269 277 l-268 269 -1747 -1746z"/>
<path d="M4152 6212 c-33 -37 -80 -88 -104 -113 -45 -47 -214 -228 -305 -327
-29 -32 -53 -60 -53 -64 0 -3 327 -333 726 -733 400 -399 725 -728 723 -730
-2 -2 -51 -6 -109 -10 -58 -3 -139 -8 -180 -10 -41 -3 -124 -7 -185 -10 -60
-3 -141 -7 -180 -10 -80 -5 -219 -13 -350 -20 -49 -3 -121 -7 -160 -10 -38 -2
-122 -7 -185 -11 -63 -3 -140 -7 -170 -9 -30 -2 -107 -6 -170 -10 -63 -3 -144
-8 -180 -10 -36 -2 -112 -7 -170 -10 -126 -7 -239 -13 -340 -20 -41 -2 -122
-7 -180 -10 -244 -14 -454 -26 -525 -31 l-60 -4 -272 -272 c-150 -150 -272
-276 -270 -281 1 -4 460 -466 1020 -1026 l1019 -1018 277 276 278 276 -739
740 c-406 407 -738 742 -738 745 0 3 19 5 43 6 38 1 176 8 347 19 36 2 112 6
170 10 58 3 137 8 175 10 39 2 115 7 170 10 55 3 132 7 170 10 39 3 115 7 170
10 55 3 136 7 180 10 121 8 219 13 340 20 61 3 144 8 185 10 41 3 116 7 165
10 50 3 135 7 190 11 122 7 172 10 345 19 74 4 151 8 170 10 19 2 99 6 178 10
l143 7 274 274 c151 151 275 278 275 281 0 9 -2011 2021 -2031 2033 -13 7 -29
-5 -77 -58z"/>
</g>
</svg>
